<svg xmlns="http://www.w3.org/2000/svg" viewBox="0 0 166 129"><defs><style>.cls-1{fill:#4c48ff;}.cls-2{fill:#00edff;}</style></defs><title>icon2</title><g id="Layer_2" data-name="Layer 2"><g id="icon2"><g id="computer"><path class="cls-1" d="M166,129H0V0H166ZM2,127H164V2H2Z"/><rect class="cls-1" x="1" y="21" width="164" height="2"/><path class="cls-1" d="M11,17.5A5.5,5.5,0,1,1,16.5,12,5.51,5.51,0,0,1,11,17.5Zm0-9A3.5,3.5,0,1,0,14.5,12,3.5,3.5,0,0,0,11,8.5Z"/><path class="cls-1" d="M28,17.5A5.5,5.5,0,1,1,33.5,12,5.51,5.51,0,0,1,28,17.5Zm0-9A3.5,3.5,0,1,0,31.5,12,3.5,3.5,0,0,0,28,8.5Z"/></g><polygon class="cls-2" points="63.97 93.09 26.23 74.22 63.95 54.31 64.88 56.08 30.6 74.17 64.86 91.3 63.97 93.09"/><rect class="cls-2" x="62.12" y="72.7" width="41.59" height="2" transform="translate(-20.53 113.77) rotate(-62.81)"/><polygon class="cls-2" points="100.86 93.09 99.97 91.3 134.18 74.2 99.97 57.09 100.86 55.3 138.65 74.2 100.86 93.09"/></g></g></svg>