<svg xmlns="http://www.w3.org/2000/svg" viewBox="0 0 166 129"><defs><style>.cls-1{fill:#4c48ff;}.cls-2{fill:#00edff;}</style></defs><title>icon3</title><g id="Layer_2" data-name="Layer 2"><g id="icon3"><g id="computer"><path class="cls-1" d="M166,129H0V0H166ZM2,127H164V2H2Z"/><rect class="cls-1" x="1" y="21" width="164" height="2"/><path class="cls-1" d="M11,17.5A5.5,5.5,0,1,1,16.5,12,5.51,5.51,0,0,1,11,17.5Zm0-9A3.5,3.5,0,1,0,14.5,12,3.5,3.5,0,0,0,11,8.5Z"/><path class="cls-1" d="M28,17.5A5.5,5.5,0,1,1,33.5,12,5.51,5.51,0,0,1,28,17.5Zm0-9A3.5,3.5,0,1,0,31.5,12,3.5,3.5,0,0,0,28,8.5Z"/></g><path class="cls-2" d="M56.71,60.82H46.1v8h4.52a1.45,1.45,0,0,1,1,.44,1.47,1.47,0,0,1,.44,1,1.5,1.5,0,0,1-.43,1.07,1.4,1.4,0,0,1-1.05.44H46.1v8H56.74a1.47,1.47,0,0,1,1.06.44,1.5,1.5,0,0,1,0,2.13,1.53,1.53,0,0,1-1.08.43H43.1v-25H56.71a1.51,1.51,0,0,1,1.08.45,1.47,1.47,0,0,1,.45,1.07,1.4,1.4,0,0,1-.45,1A1.5,1.5,0,0,1,56.71,60.82Z"/><path class="cls-2" d="M66.1,80.73V57.82H77.33a4.67,4.67,0,0,1,3.36,1.37,4.39,4.39,0,0,1,1.41,3.26V64.2a4.42,4.42,0,0,1-1.4,3.27,4.68,4.68,0,0,1-3.37,1.35H74.69l6.06,11a1.92,1.92,0,0,1,.28,1,1.48,1.48,0,0,1-.46,1.09,1.48,1.48,0,0,1-2.39-.38L71.24,68.82H69.1V80.73a1.54,1.54,0,0,1-.45,1.11,1.47,1.47,0,0,1-1.07.45,1.41,1.41,0,0,1-1-.45A1.56,1.56,0,0,1,66.1,80.73Zm3-14.91h7.52a1.38,1.38,0,0,0,1-.46,1.6,1.6,0,0,0,.43-1.12V62.4a1.62,1.62,0,0,0-.43-1.12,1.42,1.42,0,0,0-1-.46H69.1Z"/><path class="cls-2" d="M89.1,80.73V57.82h11.23a4.67,4.67,0,0,1,3.36,1.37,4.39,4.39,0,0,1,1.41,3.26V64.2a4.42,4.42,0,0,1-1.4,3.27,4.68,4.68,0,0,1-3.37,1.35H97.69l6,11a1.94,1.94,0,0,1,.29,1,1.52,1.52,0,0,1-.46,1.09,1.47,1.47,0,0,1-1,.45,1.43,1.43,0,0,1-1.34-.83L94.24,68.82H92.1V80.73a1.54,1.54,0,0,1-.45,1.11,1.47,1.47,0,0,1-1.07.45,1.41,1.41,0,0,1-1-.45A1.56,1.56,0,0,1,89.1,80.73Zm3-14.91h7.52a1.38,1.38,0,0,0,1-.46,1.6,1.6,0,0,0,.43-1.12V62.4a1.62,1.62,0,0,0-.43-1.12,1.42,1.42,0,0,0-1-.46H92.1Z"/><path class="cls-2" d="M119,78.82h1.48c.44-.73.81-.57,1.13-.26a1.54,1.54,0,0,1,.48,1.09V81a1.55,1.55,0,0,1-.46,1.1,4.36,4.36,0,0,1-1.11.69H119a4.13,4.13,0,0,1-1.1-.69,8,8,0,0,1-.77-1.1V79.69a10.24,10.24,0,0,1,.79-1.12C118.2,78.25,118.57,78.09,119,78.82Zm3.12-19.4-.76,12.09a1.79,1.79,0,0,1-.5,1.12,1.45,1.45,0,0,1-1.06.44,1.48,1.48,0,0,1-1.13-.46,1.69,1.69,0,0,1-.47-1.1l-.76-12.13a1.35,1.35,0,0,1,.43-1.09,1.56,1.56,0,0,1,1.13-.47h1.56a1.5,1.5,0,0,1,1.12.5A1.4,1.4,0,0,1,122.13,59.42Z"/></g></g></svg>