<svg width="60" height="60" viewBox="0 0 60 60" fill="none" xmlns="http://www.w3.org/2000/svg">
<circle cx="30" cy="30" r="30" fill="#282833"/>
<path d="M19.7559 25.0342L15.502 38H12.0752L17.8867 22.3594H20.0674L19.7559 25.0342ZM23.29 38L19.0254 25.0342L18.6816 22.3594H20.8838L26.7275 38H23.29ZM23.0967 32.1777V34.7021H14.8359V32.1777H23.0967ZM34.2686 32.4248H30.2832V29.9111H34.2686C34.8844 29.9111 35.3857 29.8109 35.7725 29.6104C36.1592 29.4027 36.4421 29.1162 36.6211 28.751C36.8001 28.3857 36.8896 27.974 36.8896 27.5156C36.8896 27.0501 36.8001 26.6169 36.6211 26.2158C36.4421 25.8148 36.1592 25.4925 35.7725 25.249C35.3857 25.0055 34.8844 24.8838 34.2686 24.8838H31.4004V38H28.1777V22.3594H34.2686C35.4932 22.3594 36.5423 22.5814 37.416 23.0254C38.2969 23.4622 38.9701 24.0674 39.4355 24.8408C39.901 25.6143 40.1338 26.4987 40.1338 27.4941C40.1338 28.5039 39.901 29.3776 39.4355 30.1152C38.9701 30.8529 38.2969 31.4222 37.416 31.8232C36.5423 32.2243 35.4932 32.4248 34.2686 32.4248ZM45.7842 22.3594V38H42.5723V22.3594H45.7842Z" fill="#EFAE19"/>
</svg>
